<?xml version="1.0" encoding="utf-8"?>
<!-- Generator: Adobe Illustrator 26.5.0, SVG Export Plug-In . SVG Version: 6.00 Build 0)  -->
<svg version="1.1" id="Layer_1" xmlns="http://www.w3.org/2000/svg" xmlns:xlink="http://www.w3.org/1999/xlink" x="0px" y="0px"
	 viewBox="0 0 198 31" style="enable-background:new 0 0 198 31;" xml:space="preserve">
<style type="text/css">
	.st0{fill:#E5E5E5;}
	.st1{fill:#8DC69B;}
	.st2{fill:#B18DC6;}
	.st3{fill:#FFFFFF;}
</style>
<path class="st0" d="M10.9,27.5c-0.8,0-1.6-0.4-2-1c-0.5,0.6-1.2,1-2,1H2c-1.4,0-2.5-1.1-2.5-2.5V8.9c0-1.4,1.1-2.5,2.5-2.5h4.9
	c0.7,0,1.4,0.3,1.9,0.8c0.5-0.5,1.1-0.8,1.9-0.8h5.8c0.9,0,1.7,0.5,2.2,1.3c0.4,0.8,0.4,1.8,0,2.5l-3.8,6.4l4.2,7.1
	c0.5,0.8,0.5,1.7,0,2.5c-0.4,0.8-1.3,1.3-2.2,1.3H10.9z"/>
<path class="st0" d="M10.9,27.2c-0.8,0-1.5-0.4-1.9-1.2l-0.1-0.2c-0.3,0.8-1.1,1.4-2,1.4H2c-1.2,0-2.2-1-2.2-2.2V8.9
	c0-1.2,1-2.2,2.2-2.2h4.9c0.8,0,1.5,0.4,1.9,1.1c0.4-0.7,1.1-1.1,1.9-1.1h5.8c0.8,0,1.5,0.4,1.9,1.1s0.4,1.5,0,2.2l-3.9,6.6l4.4,7.3
	c0.4,0.7,0.4,1.5,0,2.2s-1.1,1.1-1.9,1.1C17,27.2,10.9,27.2,10.9,27.2z"/>
<path class="st0" d="M24.9,27.5c-1.1,0-2.1-0.7-2.4-1.7L17.3,9.7c-0.2-0.8-0.1-1.6,0.4-2.3c0.5-0.6,1.2-1,2-1h5.2
	c1.2,0,2.2,0.8,2.4,1.9l0.4,1.5l0.4-1.5c0.3-1.1,1.3-1.9,2.4-1.9h5.1c0.8,0,1.6,0.4,2,1c0.5,0.7,0.6,1.5,0.4,2.3l-5.3,16.1
	c-0.3,1-1.3,1.7-2.4,1.7H24.9z"/>
<path class="st0" d="M24.9,27.2c-0.9,0-1.8-0.6-2.1-1.5L17.7,9.6c-0.2-0.7-0.1-1.4,0.3-1.9c0.4-0.6,1.1-0.9,1.7-0.9h5.2
	c1,0,1.9,0.7,2.1,1.6l0.7,2.9l0.7-2.9c0.2-1,1.1-1.7,2.1-1.7h5.1c0.7,0,1.3,0.3,1.7,0.9c0.4,0.6,0.5,1.3,0.3,1.9l-5.3,16.1
	c-0.3,0.9-1.1,1.5-2.1,1.5L24.9,27.2L24.9,27.2z"/>
<path class="st1" d="M10.9,26.4c-0.5,0-1-0.3-1.3-0.8L8.3,23v2c0,0.8-0.6,1.4-1.4,1.4H2c-0.8,0-1.4-0.6-1.4-1.4V8.9
	c0-0.8,0.6-1.4,1.4-1.4h4.9c0.8,0,1.4,0.6,1.4,1.4v1.4l1-2.1c0.2-0.5,0.7-0.8,1.3-0.8h5.8c0.5,0,1,0.3,1.3,0.7s0.2,1,0,1.4l-4.1,6.9
	l4.6,7.7c0.3,0.4,0.3,1,0,1.4s-0.7,0.9-1.3,0.9H10.9z"/>
<path class="st1" d="M24.9,26.4c-0.6,0-1.2-0.4-1.4-1L18.4,9.3c-0.1-0.4-0.1-0.9,0.2-1.3c0.3-0.4,0.7-0.6,1.2-0.6H25
	c0.7,0,1.2,0.5,1.4,1.1l1.4,5.8l1.4-5.8c0.2-0.6,0.7-1.1,1.4-1.1h5.1c0.5,0,0.9,0.2,1.2,0.6c0.3,0.4,0.3,0.9,0.2,1.3l-5.3,16.1
	c-0.2,0.6-0.7,1-1.4,1C30.4,26.4,24.9,26.4,24.9,26.4z"/>
<path class="st2" d="M10.9,25.7c-0.3,0-0.5-0.1-0.6-0.4l-2.7-5.1V25c0,0.4-0.3,0.7-0.7,0.7H2c-0.4,0-0.7-0.3-0.7-0.7V8.9
	c0-0.4,0.3-0.7,0.7-0.7h4.9c0.4,0,0.7,0.3,0.7,0.7v4.5L10,8.5c0.1-0.2,0.4-0.4,0.6-0.4h5.8c0.3,0,0.5,0.1,0.6,0.4s0.1,0.5,0,0.7
	l-4.4,7.3l4.8,8.1c0.1,0.2,0.1,0.5,0,0.7s-0.4,0.4-0.6,0.4H10.9z"/>
<path class="st2" d="M24.9,25.6c-0.3,0-0.6-0.1-0.7-0.4L19.1,9.1c-0.1-0.2,0-0.5,0.1-0.6c0.1-0.2,0.4-0.3,0.6-0.3H25
	c0.3,0,0.6,0.2,0.7,0.5l2.1,8.6l2.1-8.6c0.1-0.3,0.4-0.6,0.7-0.6h5.1c0.2,0,0.4,0.1,0.6,0.3c0.1,0.2,0.2,0.4,0.1,0.6l-5.3,16.1
	c-0.1,0.3-0.4,0.5-0.7,0.5H24.9L24.9,25.6z"/>
<path class="st3" d="M7.3,18.2c-0.2-0.5-0.4-0.9-0.4-1.1H6.8V25H2V8.9h4.9v7.7H7c0.1-0.4,0.3-0.8,0.5-1.1L10.7,9h5.8l-4.6,7.7l5,8.4
	h-6L7.3,18.2z"/>
<path class="st3" d="M30.4,25h-5.5L19.7,8.9h5.2l2.5,9.9c0.2,0.8,0.3,1.4,0.3,1.8h0.2c0-0.5,0.2-1.1,0.3-1.9
	c0.5-2.5,2.4-9.8,2.4-9.8h5.1L30.4,25z"/>
</svg>
