<?xml version="1.0" encoding="utf-8"?>
<!-- Generator: Adobe Illustrator 27.0.1, SVG Export Plug-In . SVG Version: 6.00 Build 0)  -->
<svg version="1.1" id="Layer_1" xmlns="http://www.w3.org/2000/svg" xmlns:xlink="http://www.w3.org/1999/xlink" x="0px" y="0px"
	 viewBox="0 0 198 31" style="enable-background:new 0 0 198 31;" xml:space="preserve">
<style type="text/css">
	.st0{fill:#705F7D;}
</style>
<g>
	<path class="st0" d="M7.3,18.2c-0.2-0.5-0.4-0.9-0.4-1.1H6.8V25H2V8.9h4.9v7.7H7c0.1-0.4,0.3-0.8,0.5-1.1L10.7,9h5.8l-4.6,7.7
		l5,8.4h-6L7.3,18.2z"/>
	<path class="st0" d="M30.4,25h-5.5L19.7,8.9h5.2l2.5,9.9c0.2,0.8,0.3,1.4,0.3,1.8h0.2c0-0.5,0.2-1.1,0.3-1.9
		c0.5-2.5,2.4-9.8,2.4-9.8h5.1L30.4,25z"/>
</g>
</svg>
