<?xml version="1.0" encoding="utf-8"?>
<!-- Generator: Adobe Illustrator 27.0.1, SVG Export Plug-In . SVG Version: 6.00 Build 0)  -->
<svg version="1.1" id="Layer_1" xmlns="http://www.w3.org/2000/svg" xmlns:xlink="http://www.w3.org/1999/xlink" x="0px" y="0px"
	 viewBox="0 0 198 31" style="enable-background:new 0 0 198 31;" xml:space="preserve">
<style type="text/css">
	.st0{fill:#FFFFFF;}
</style>
<g>
	<path class="st0" d="M10.9,25l-3.6-6.8c-0.2-0.5-0.4-0.9-0.4-1.1H6.8V25H2V8.9h4.9v7.7H7c0.1-0.4,0.3-0.8,0.5-1.1L10.7,9h5.8
		l-4.6,7.7l5,8.4L10.9,25L10.9,25z"/>
	<path class="st0" d="M22.5,10.4c0,0.7-0.2,1.2-0.7,1.6s-1.1,0.6-1.9,0.6s-1.4-0.2-1.9-0.7c-0.5-0.4-0.7-1-0.7-1.6
		c0-0.7,0.2-1.2,0.7-1.6c0.5-0.4,1.1-0.6,1.9-0.6s1.4,0.2,1.9,0.6S22.5,9.7,22.5,10.4z M17.4,25V13.5h4.8V25H17.4z"/>
	<path class="st0" d="M33.1,17.6c-0.2-0.1-0.4-0.2-0.7-0.2c-0.3-0.1-0.6-0.1-0.8-0.1c-1.6,0-2.4,0.9-2.4,2.7v5h-4.8V13.5h4.8v2l0,0
		c0.3-0.7,0.7-1.3,1.2-1.7s1.2-0.6,1.9-0.6c0.3,0,0.5,0,0.7,0.1L33.1,17.6L33.1,17.6z"/>
	<path class="st0" d="M43.9,21.2c0,1.3-0.5,2.3-1.5,3s-2.4,1.1-4.1,1.1c-0.5,0-1.2-0.1-1.9-0.2c-0.8-0.1-1.4-0.2-1.9-0.4v-3.4
		c1.4,0.6,2.6,0.9,3.5,0.9s1.4-0.2,1.4-0.7c0-0.2-0.1-0.4-0.3-0.5s-0.8-0.4-1.7-0.7c-1-0.3-1.8-0.7-2.2-1.3
		c-0.5-0.5-0.7-1.2-0.7-2.1c0-1.2,0.5-2.1,1.4-2.8s2.3-1,4-1c1,0,2.1,0.1,3.2,0.4v3.2c-0.5-0.2-1-0.4-1.5-0.5s-1-0.2-1.4-0.2
		c-0.3,0-0.6,0.1-0.8,0.2s-0.3,0.3-0.3,0.4c0,0.2,0.1,0.4,0.3,0.5s0.6,0.3,1.2,0.5c1.2,0.3,2,0.8,2.5,1.3
		C43.6,19.6,43.9,20.3,43.9,21.2z"/>
	<path class="st0" d="M53.7,24.8c-0.2,0.1-0.6,0.2-1.1,0.3s-1.1,0.1-1.8,0.1c-1.3,0-2.4-0.4-3.1-1.1c-0.8-0.7-1.1-1.8-1.1-3.1v-4.2
		h-1.8v-3.3h1.8v-2.3l4.7-1.3v3.6h2.4v3.3h-2.4v3.4c0,1,0.4,1.5,1.2,1.5c0.4,0,0.8-0.1,1.2-0.2C53.7,21.5,53.7,24.8,53.7,24.8z"/>
	<path class="st0" d="M59.3,20.6c0.1,0.5,0.4,0.9,0.9,1.2c0.5,0.3,1.1,0.4,1.9,0.4c1.1,0,2.2-0.2,3.2-0.6v3
		c-1.2,0.5-2.6,0.7-4.2,0.7c-2,0-3.6-0.5-4.7-1.5c-1.1-1-1.7-2.4-1.7-4.2c0-1.2,0.2-2.3,0.7-3.3s1.2-1.7,2.2-2.2s2-0.8,3.2-0.8
		s2.2,0.2,3.1,0.7c0.8,0.5,1.5,1.1,1.9,2c0.4,0.8,0.7,1.8,0.7,2.9v1.8h-7.2V20.6z M62.2,18.1c0-1.3-0.5-2-1.4-2
		c-0.4,0-0.7,0.2-1,0.5s-0.4,0.8-0.5,1.4h2.9V18.1z"/>
	<path class="st0" d="M75.6,25v-6.3c0-0.7-0.1-1.2-0.3-1.5c-0.2-0.3-0.6-0.5-1-0.5s-0.7,0.2-1,0.5c-0.2,0.3-0.3,0.7-0.3,1.2V25h-4.8
		V13.5H73v1.8l0,0c0.4-0.7,0.9-1.2,1.5-1.5c0.6-0.4,1.3-0.5,2.1-0.5c2.5,0,3.8,1.6,3.8,4.8v7h-4.8V25z"/>
	<path class="st0" d="M98.5,25H93L87.8,8.9H93l2.5,9.9c0.2,0.8,0.3,1.4,0.3,1.8H96c0-0.5,0.2-1.1,0.3-1.9l2.4-9.8h5.1L98.5,25z"/>
	<path class="st0" d="M111.4,25v-1.8l0,0c-0.8,1.4-1.9,2-3.5,2c-1.1,0-1.9-0.3-2.5-1c-0.6-0.6-0.9-1.5-0.9-2.6
		c0-2.3,1.4-3.6,4.2-3.9l2.9-0.4c0-0.4-0.2-0.7-0.5-0.9s-0.8-0.4-1.4-0.4c-1.3,0-2.6,0.4-4.1,1.1V14c0.6-0.3,1.4-0.5,2.3-0.7
		s1.7-0.3,2.4-0.3c2,0,3.4,0.4,4.2,1.3c0.9,0.8,1.3,2.2,1.3,4.2V25H111.4z M108.6,21.1c0,0.3,0.1,0.6,0.3,0.8
		c0.2,0.2,0.5,0.3,0.8,0.3c0.5,0,0.9-0.2,1.2-0.6s0.5-0.9,0.5-1.4v-0.4l-1.6,0.2C109,20.1,108.6,20.5,108.6,21.1z"/>
	<path class="st0" d="M125.4,25v-6.3c0-0.7-0.1-1.2-0.3-1.5c-0.2-0.3-0.6-0.5-1-0.5s-0.7,0.2-1,0.5c-0.2,0.3-0.3,0.7-0.3,1.2V25H118
		V13.5h4.8v1.8l0,0c0.4-0.7,0.9-1.2,1.5-1.5c0.6-0.4,1.3-0.5,2.1-0.5c2.5,0,3.8,1.6,3.8,4.8v7h-4.8V25z"/>
	<path class="st0" d="M140,25v-1.3l0,0c-0.4,0.5-0.9,0.9-1.5,1.2c-0.6,0.3-1.2,0.4-1.8,0.4c-1,0-1.8-0.2-2.6-0.7
		c-0.7-0.5-1.3-1.2-1.7-2c-0.4-0.9-0.6-1.9-0.6-3.1s0.2-2.3,0.7-3.2c0.4-0.9,1.1-1.7,1.9-2.2c0.8-0.5,1.7-0.8,2.7-0.8
		c0.5,0,0.9,0.1,1.3,0.2c0.4,0.1,0.7,0.3,1,0.5s0.5,0.5,0.6,0.7l0,0V8h4.8v17H140z M140.1,18.9c0-0.7-0.2-1.2-0.5-1.6
		s-0.7-0.6-1.2-0.6s-0.9,0.2-1.3,0.7c-0.3,0.5-0.5,1.1-0.5,1.9c0,1.6,0.6,2.4,1.7,2.4c0.5,0,1-0.2,1.3-0.7c0.3-0.4,0.5-1.1,0.5-1.9
		V18.9z"/>
	<path class="st0" d="M151.2,20.6c0.1,0.5,0.4,0.9,0.9,1.2c0.5,0.3,1.1,0.4,1.9,0.4c1.1,0,2.2-0.2,3.2-0.6v3
		c-1.2,0.5-2.6,0.7-4.2,0.7c-2,0-3.6-0.5-4.7-1.5c-1.1-1-1.7-2.4-1.7-4.2c0-1.2,0.2-2.3,0.7-3.3s1.2-1.7,2.2-2.2s2-0.8,3.2-0.8
		s2.2,0.2,3.1,0.7c0.8,0.5,1.5,1.1,1.9,2c0.4,0.8,0.7,1.8,0.7,2.9v1.8h-7.2V20.6z M154.1,18.1c0-1.3-0.5-2-1.4-2
		c-0.4,0-0.7,0.2-1,0.5s-0.4,0.8-0.5,1.4h2.9V18.1z"/>
	<path class="st0" d="M173,18.9c0,1.3-0.2,2.4-0.6,3.3s-1,1.7-1.8,2.2s-1.7,0.8-2.6,0.8c-1.3,0-2.4-0.5-3.1-1.5l0,0v6.5H160V13.5
		h4.8v1.6l0,0c0.4-0.6,0.9-1,1.5-1.4c0.6-0.3,1.3-0.5,2.1-0.5c1.5,0,2.6,0.5,3.4,1.5S173,17.1,173,18.9z M168.1,19
		c0-0.7-0.1-1.3-0.4-1.7c-0.3-0.4-0.7-0.6-1.3-0.6c-0.5,0-0.9,0.2-1.2,0.7c-0.3,0.4-0.5,1-0.5,1.8v0.2c0,0.7,0.1,1.3,0.4,1.7
		c0.3,0.4,0.7,0.7,1.2,0.7c0.6,0,1-0.2,1.3-0.7S168.1,19.9,168.1,19z"/>
	<path class="st0" d="M181.1,25v-1.8l0,0c-0.8,1.4-1.9,2-3.5,2c-1.1,0-1.9-0.3-2.5-1c-0.6-0.6-0.9-1.5-0.9-2.6
		c0-2.3,1.4-3.6,4.2-3.9l2.9-0.4c0-0.4-0.2-0.7-0.5-0.9S180,16,179.4,16c-1.3,0-2.6,0.4-4.1,1.1V14c0.6-0.3,1.4-0.5,2.3-0.7
		c0.9-0.2,1.7-0.3,2.4-0.3c2,0,3.4,0.4,4.2,1.3c0.9,0.8,1.3,2.2,1.3,4.2V25H181.1z M178.3,21.1c0,0.3,0.1,0.6,0.3,0.8
		c0.2,0.2,0.5,0.3,0.8,0.3c0.5,0,0.9-0.2,1.2-0.6s0.5-0.9,0.5-1.4v-0.4l-1.6,0.2C178.7,20.1,178.3,20.5,178.3,21.1z"/>
	<path class="st0" d="M197,21.2c0,1.3-0.5,2.3-1.5,3s-2.4,1.1-4.1,1.1c-0.5,0-1.2-0.1-1.9-0.2c-0.8-0.1-1.4-0.2-1.9-0.4v-3.4
		c1.4,0.6,2.6,0.9,3.5,0.9s1.4-0.2,1.4-0.7c0-0.2-0.1-0.4-0.3-0.5s-0.8-0.4-1.7-0.7c-1-0.3-1.8-0.7-2.2-1.3
		c-0.5-0.5-0.7-1.2-0.7-2.1c0-1.2,0.5-2.1,1.4-2.8s2.3-1,4-1c1,0,2.1,0.1,3.2,0.4v3.2c-0.5-0.2-1-0.4-1.5-0.5s-1-0.2-1.4-0.2
		c-0.3,0-0.6,0.1-0.8,0.2s-0.3,0.3-0.3,0.4c0,0.2,0.1,0.4,0.3,0.5s0.6,0.3,1.2,0.5c1.2,0.3,2,0.8,2.5,1.3
		C196.7,19.6,197,20.3,197,21.2z"/>
</g>
</svg>
