<?xml version="1.0" encoding="utf-8"?>
<!-- Generator: Adobe Illustrator 26.5.0, SVG Export Plug-In . SVG Version: 6.00 Build 0)  -->
<svg version="1.1" id="Layer_1" xmlns="http://www.w3.org/2000/svg" xmlns:xlink="http://www.w3.org/1999/xlink" x="0px" y="0px"
	 viewBox="0 0 198 31" style="enable-background:new 0 0 198 31;" xml:space="preserve">
<style type="text/css">
	.st0{fill:#E5E5E5;}
	.st1{fill:#8DC69B;}
	.st2{fill:#B18DC6;}
	.st3{fill:#FFFFFF;}
</style>
<g>
	<path class="st0" d="M10.9,27.5c-0.8,0-1.6-0.4-2-1c-0.5,0.6-1.2,1-2,1H2c-1.4,0-2.5-1.1-2.5-2.5V8.9c0-1.4,1.1-2.5,2.5-2.5h4.9
		c0.7,0,1.4,0.3,1.9,0.8c0.5-0.5,1.1-0.8,1.9-0.8h5.8c0.9,0,1.7,0.5,2.2,1.3c0.4,0.8,0.4,1.8,0,2.5l-3.8,6.4l4.2,7.1
		c0.5,0.8,0.5,1.7,0,2.5c-0.4,0.8-1.3,1.3-2.2,1.3H10.9z"/>
	<path class="st0" d="M10.9,27.2c-0.8,0-1.5-0.4-1.9-1.2l-0.1-0.2c-0.3,0.8-1.1,1.4-2,1.4H2c-1.2,0-2.2-1-2.2-2.2V8.9
		c0-1.2,1-2.2,2.2-2.2h4.9c0.8,0,1.5,0.4,1.9,1.1c0.4-0.7,1.1-1.1,1.9-1.1h5.8c0.8,0,1.5,0.4,1.9,1.1c0.4,0.7,0.4,1.5,0,2.2
		l-3.9,6.6l4.4,7.3c0.4,0.7,0.4,1.5,0,2.2c-0.4,0.7-1.1,1.1-1.9,1.1H10.9z"/>
	<path class="st0" d="M17.4,27.5c-1.4,0-2.5-1.1-2.5-2.5V13.5c0-0.4,0.1-0.7,0.2-1c-0.3-0.6-0.5-1.3-0.5-2.1c0-1.4,0.6-2.6,1.6-3.5
		c0.9-0.8,2.1-1.2,3.6-1.2c1.4,0,2.6,0.4,3.6,1.2C24.4,7.7,25,9,25,10.4c0,0.8-0.2,1.5-0.5,2.1c0.1,0.3,0.2,0.7,0.2,1V25
		c0,1.4-1.1,2.5-2.5,2.5H17.4z"/>
	<path class="st0" d="M17.4,27.2c-1.2,0-2.2-1-2.2-2.2V13.5c0-0.4,0.1-0.7,0.3-1c-0.3-0.6-0.5-1.3-0.5-2.1c0-1.3,0.5-2.4,1.5-3.3
		c0.9-0.7,2-1.1,3.3-1.1c1.3,0,2.4,0.4,3.3,1.1c1,0.8,1.5,2,1.5,3.3c0,0.8-0.2,1.5-0.5,2.1c0.2,0.3,0.2,0.6,0.2,1V25
		c0,1.2-1,2.2-2.2,2.2H17.4z"/>
	<path class="st0" d="M24.5,27.5c-1.4,0-2.5-1.1-2.5-2.5V13.5c0-1.4,1.1-2.5,2.5-2.5h4.8c0.3,0,0.7,0.1,1,0.2
		c0.7-0.3,1.4-0.4,2.2-0.4c0.6,0,1.2,0.1,1.7,0.4c0.9,0.4,1.5,1.3,1.5,2.3v4.2c0,0.9-0.4,1.7-1.2,2.1c-0.4,0.3-0.9,0.4-1.4,0.4
		c-0.4,0-0.7-0.1-1.1-0.2c0,0-0.3-0.1-0.3-0.1c0,0.1,0,0.1,0,0.2v5c0,1.4-1.1,2.5-2.5,2.5H24.5z"/>
	<path class="st0" d="M24.5,27.2c-1.2,0-2.2-1-2.2-2.2V13.5c0-1.2,1-2.2,2.2-2.2h4.8c0.3,0,0.7,0.1,1,0.2c0.7-0.3,1.4-0.4,2.2-0.4
		c0.6,0,1.1,0.1,1.6,0.3c0.8,0.4,1.3,1.1,1.3,2v4.2c0,0.7-0.4,1.4-1,1.8c-0.3,0.2-0.8,0.3-1.2,0.3c-0.3,0-0.6-0.1-0.9-0.2
		c0,0-0.1,0-0.3-0.1c-0.2,0-0.3-0.1-0.3-0.1c-0.1,0-0.1,0-0.1,0c0,0.1-0.1,0.3-0.1,0.6v5c0,1.2-1,2.2-2.2,2.2H24.5z"/>
	<path class="st0" d="M38.2,27.8c-0.6,0-1.4-0.1-2.3-0.2c-0.9-0.1-1.7-0.3-2.3-0.5c-1.1-0.3-1.8-1.3-1.8-2.4v-3.4
		c0-0.6,0.2-1.2,0.6-1.6c-0.4-0.8-0.6-1.7-0.6-2.7c0-2,0.8-3.7,2.5-4.9c1.4-1,3.2-1.5,5.5-1.5c1.2,0,2.5,0.2,3.8,0.5
		c1.1,0.3,1.9,1.3,1.9,2.4v3.2c0,0.3-0.1,0.7-0.2,1c0.7,0.9,1,2.1,1,3.3c0,2.1-0.9,3.9-2.5,5.1C42.4,27.3,40.5,27.8,38.2,27.8z"/>
	<path class="st0" d="M38.2,27.4c-0.6,0-1.4-0.1-2.2-0.2c-0.9-0.1-1.6-0.3-2.2-0.5c-0.9-0.3-1.5-1.1-1.5-2.1v-3.4
		c0-0.6,0.2-1.2,0.7-1.6c-0.5-0.8-0.7-1.7-0.7-2.7c0-1.9,0.8-3.5,2.3-4.6c1.3-1,3.1-1.5,5.3-1.5c1.2,0,2.4,0.2,3.7,0.5
		c1,0.2,1.6,1.1,1.6,2.1v3.2c0,0.4-0.1,0.7-0.3,1.1c0.7,0.9,1.1,2,1.1,3.2c0,2-0.8,3.7-2.4,4.8C42.3,26.9,40.4,27.4,38.2,27.4z"/>
	<path class="st0" d="M50.9,27.8c-2,0-3.7-0.6-4.9-1.8c-1.3-1.2-1.9-2.9-1.9-4.9v-1.8c-1.1-0.3-1.8-1.3-1.8-2.4v-3.3
		c0-1.1,0.7-2.1,1.8-2.4c0.1-1.1,0.8-2,1.8-2.3l4.7-1.3c0.2-0.1,0.4-0.1,0.7-0.1c0.5,0,1.1,0.2,1.5,0.5c0.6,0.5,1,1.2,1,2v1
		c1.3,0.1,2.4,1.2,2.4,2.5v3.3c0,1.1-0.7,2-1.6,2.4c0.2,0.1,0.4,0.2,0.5,0.3c0.7,0.5,1.1,1.2,1.1,2.1v3.3c0,1-0.6,1.9-1.4,2.3
		c-0.4,0.2-1,0.4-1.7,0.5C52.5,27.7,51.7,27.8,50.9,27.8z"/>
	<path class="st0" d="M50.9,27.4c-1.9,0-3.5-0.6-4.6-1.7C45,24.6,44.4,23,44.4,21v-2.1c-1-0.2-1.8-1.1-1.8-2.1v-3.3
		c0-1.1,0.8-2,1.8-2.1v-0.1c0-1,0.7-1.8,1.6-2.1l4.7-1.3c0.2-0.1,0.4-0.1,0.6-0.1c0.5,0,0.9,0.2,1.3,0.4c0.5,0.4,0.8,1,0.8,1.7v1.4
		h0.2c1.2,0,2.2,1,2.2,2.2v3.3c0,1.2-1,2.2-2.2,2.2h-0.2v0.4c0.1,0,0.2,0,0.2,0c0.4,0,0.9,0.1,1.2,0.4c0.6,0.4,0.9,1.1,0.9,1.8v3.3
		c0,0.8-0.5,1.6-1.2,1.9c-0.4,0.2-0.9,0.3-1.6,0.5C52.4,27.4,51.7,27.4,50.9,27.4z"/>
	<path class="st0" d="M61.1,27.8c-2.6,0-4.8-0.7-6.4-2.2c-1.7-1.5-2.5-3.6-2.5-6.1c0-1.6,0.3-3.1,1-4.4c0.7-1.4,1.8-2.5,3.2-3.3
		c1.3-0.7,2.8-1.1,4.4-1.1c1.6,0,3.1,0.3,4.3,1c1.3,0.7,2.3,1.7,2.9,3c0.6,1.2,0.9,2.6,0.9,4.1v1.8c0,0.9-0.4,1.7-1.2,2.1v1.9
		c0,1-0.6,2-1.6,2.3C64.8,27.5,63,27.8,61.1,27.8z"/>
	<path class="st0" d="M61.1,27.4c-2.6,0-4.6-0.7-6.1-2.1c-1.6-1.4-2.4-3.4-2.4-5.8c0-1.6,0.3-3,1-4.3c0.7-1.3,1.7-2.4,3-3.1
		c1.3-0.7,2.7-1.1,4.2-1.1c1.6,0,2.9,0.3,4.1,1c1.2,0.7,2.2,1.6,2.8,2.8c0.6,1.1,0.9,2.5,0.9,3.9v1.8c0,0.8-0.5,1.5-1.2,1.9v2.1
		c0,0.9-0.5,1.7-1.4,2C64.7,27.2,63,27.4,61.1,27.4z"/>
	<path class="st0" d="M75.6,27.5c-0.5,0-0.9-0.1-1.3-0.4c-0.4,0.3-0.9,0.4-1.3,0.4h-4.8c-1.4,0-2.5-1.1-2.5-2.5V13.5
		c0-1.4,1.1-2.5,2.5-2.5h4.8c0.4,0,0.7,0.1,1.1,0.2c0.8-0.3,1.7-0.5,2.6-0.5c1.9,0,6.3,0.7,6.3,7.3v7c0,1.4-1.1,2.5-2.5,2.5H75.6z"
		/>
	<path class="st0" d="M75.6,27.2c-0.5,0-1-0.2-1.3-0.5c-0.4,0.3-0.8,0.5-1.3,0.5h-4.8c-1.2,0-2.2-1-2.2-2.2V13.5
		c0-1.2,1-2.2,2.2-2.2h4.8c0.4,0,0.7,0.1,1.1,0.3c0.8-0.4,1.7-0.6,2.6-0.6c1.8,0,5.9,0.7,5.9,6.9v7c0,1.2-1,2.2-2.2,2.2H75.6z"/>
	<path class="st0" d="M93,27.5c-1.1,0-2.1-0.7-2.4-1.7L85.4,9.7c-0.2-0.8-0.1-1.6,0.4-2.3c0.5-0.6,1.2-1,2-1h5.2
		c1.2,0,2.2,0.8,2.4,1.9l0.4,1.5l0.4-1.5c0.3-1.1,1.3-1.9,2.4-1.9h5.1c0.8,0,1.6,0.4,2,1c0.5,0.7,0.6,1.5,0.4,2.3l-5.3,16.1
		c-0.3,1-1.3,1.7-2.4,1.7H93z"/>
	<path class="st0" d="M93,27.2c-0.9,0-1.8-0.6-2.1-1.5L85.8,9.6c-0.2-0.7-0.1-1.4,0.3-1.9c0.4-0.6,1.1-0.9,1.7-0.9h5.2
		c1,0,1.9,0.7,2.1,1.6l0.7,2.9l0.7-2.9c0.2-1,1.1-1.7,2.1-1.7h5.1c0.7,0,1.3,0.3,1.7,0.9c0.4,0.6,0.5,1.3,0.3,1.9l-5.3,16.1
		c-0.3,0.9-1.1,1.5-2.1,1.5H93z"/>
	<path class="st0" d="M107.9,27.8c-1.8,0-3.3-0.6-4.4-1.8c-1.1-1.1-1.6-2.6-1.6-4.3c0-0.8,0.2-2.4,1.2-3.8c-0.1-0.2-0.1-0.5-0.1-0.7
		v-3.1c0-1,0.6-1.9,1.5-2.3c0.8-0.3,1.8-0.6,2.9-0.8c1.1-0.2,2-0.3,2.9-0.3c2.6,0,4.6,0.7,6,1.9c1.4,1.3,2.1,3.3,2.1,6V25
		c0,1.4-1.1,2.5-2.5,2.5h-4.4c-0.3,0-0.7-0.1-1-0.2C109.7,27.6,108.8,27.8,107.9,27.8z"/>
	<path class="st0" d="M107.9,27.4c-1.7,0-3.1-0.6-4.1-1.6c-1-1.1-1.5-2.4-1.5-4.1c0-0.9,0.2-2.4,1.2-3.7c-0.1-0.2-0.1-0.5-0.1-0.8
		v-3.1c0-0.9,0.5-1.6,1.3-2c0.8-0.3,1.7-0.6,2.8-0.8c1.1-0.2,2-0.3,2.8-0.3c2.5,0,4.4,0.6,5.7,1.8c1.3,1.3,2,3.2,2,5.7V25
		c0,1.2-1,2.2-2.2,2.2h-4.4c-0.3,0-0.7-0.1-1-0.2C109.7,27.3,108.8,27.4,107.9,27.4z"/>
	<path class="st0" d="M125.4,27.5c-0.5,0-0.9-0.1-1.3-0.4c-0.4,0.2-0.9,0.4-1.3,0.4h-4.8c-1.4,0-2.5-1.1-2.5-2.5V13.5
		c0-1.4,1.1-2.5,2.5-2.5h4.8c0.4,0,0.7,0.1,1.1,0.2c0.8-0.3,1.7-0.5,2.6-0.5c1.9,0,6.3,0.7,6.3,7.3v7c0,1.4-1.1,2.5-2.5,2.5H125.4z"
		/>
	<path class="st0" d="M125.4,27.2c-0.5,0-1-0.2-1.3-0.5c-0.4,0.3-0.8,0.5-1.3,0.5h-4.8c-1.2,0-2.2-1-2.2-2.2V13.5
		c0-1.2,1-2.2,2.2-2.2h4.8c0.4,0,0.7,0.1,1.1,0.3c0.8-0.4,1.7-0.6,2.6-0.6c1.8,0,5.9,0.7,5.9,6.9v7c0,1.2-1,2.2-2.2,2.2H125.4z"/>
	<path class="st0" d="M136.7,27.8c-1.5,0-2.8-0.4-4-1.1c-1.2-0.8-2.1-1.8-2.6-3.2c-0.5-1.2-0.8-2.5-0.8-4.1c0-1.6,0.3-3,0.9-4.3
		c0.6-1.4,1.6-2.5,2.8-3.2c1.2-0.8,2.6-1.2,4.1-1.2c0.1,0,0.3,0,0.4,0V8c0-1.4,1.1-2.5,2.5-2.5h4.8c1.4,0,2.5,1.1,2.5,2.5v17
		c0,1.4-1.1,2.5-2.5,2.5H140c-0.3,0-0.6-0.1-0.9-0.2C138.3,27.6,137.5,27.8,136.7,27.8z"/>
	<path class="st0" d="M136.7,27.4c-1.4,0-2.7-0.4-3.8-1.1c-1.1-0.7-2-1.7-2.5-3c-0.5-1.1-0.7-2.5-0.7-3.9c0-1.5,0.3-2.9,0.9-4.2
		c0.6-1.3,1.5-2.4,2.6-3.1c1.2-0.8,2.5-1.1,3.9-1.1c0.3,0,0.5,0,0.8,0V8c0-1.2,1-2.2,2.2-2.2h4.8c1.2,0,2.2,1,2.2,2.2v17
		c0,1.2-1,2.2-2.2,2.2H140c-0.3,0-0.6-0.1-0.9-0.2C138.3,27.3,137.5,27.4,136.7,27.4z"/>
	<path class="st0" d="M153,27.8c-2.6,0-4.8-0.7-6.4-2.2c-1.7-1.5-2.5-3.6-2.5-6.1c0-1.6,0.3-3.1,1-4.4c0.7-1.4,1.8-2.5,3.2-3.3
		c1.3-0.7,2.8-1.1,4.4-1.1c1.6,0,3,0.3,4.3,1c1.3,0.7,2.3,1.7,2.9,3c0.6,1.2,0.9,2.6,0.9,4.1v1.8c0,0.9-0.4,1.7-1.2,2.1v1.9
		c0,1-0.6,2-1.6,2.3C156.7,27.5,154.9,27.8,153,27.8z"/>
	<path class="st0" d="M153,27.4c-2.6,0-4.6-0.7-6.1-2.1c-1.6-1.4-2.4-3.4-2.4-5.8c0-1.6,0.3-3,1-4.3c0.7-1.3,1.7-2.4,3-3.1
		c1.3-0.7,2.7-1.1,4.2-1.1c1.6,0,2.9,0.3,4.1,1c1.2,0.7,2.2,1.6,2.8,2.8c0.6,1.1,0.9,2.5,0.9,3.9v1.8c0,0.8-0.5,1.5-1.2,1.9v2.1
		c0,0.9-0.5,1.7-1.4,2C156.6,27.2,154.9,27.4,153,27.4z"/>
	<path class="st0" d="M160,32.8c-1.4,0-2.5-1.1-2.5-2.5V13.5c0-1.4,1.1-2.5,2.5-2.5h4.8c0.3,0,0.7,0.1,1,0.2
		c0.8-0.3,1.7-0.5,2.6-0.5c2.2,0,4.1,0.8,5.4,2.4c1.2,1.4,1.7,3.4,1.7,5.8c0,1.6-0.3,3.1-0.9,4.4c-0.6,1.4-1.5,2.5-2.7,3.3
		c-1.2,0.8-2.6,1.2-4,1.2c-0.2,0-0.4,0-0.6,0v2.5c0,1.4-1.1,2.5-2.5,2.5H160z"/>
	<path class="st0" d="M160,32.4c-1.2,0-2.2-1-2.2-2.2V13.5c0-1.2,1-2.2,2.2-2.2h4.8c0.4,0,0.7,0.1,1,0.2c0.8-0.3,1.7-0.5,2.6-0.5
		c2.1,0,3.9,0.8,5.1,2.3c1.1,1.4,1.7,3.2,1.7,5.5c0,1.6-0.3,3-0.8,4.2c-0.6,1.3-1.5,2.4-2.6,3.2c-1.1,0.8-2.4,1.2-3.8,1.2
		c-0.3,0-0.6,0-1-0.1v2.9c0,1.2-1,2.2-2.2,2.2H160z"/>
	<path class="st0" d="M177.6,27.8c-1.8,0-3.3-0.6-4.4-1.8c-1.1-1.1-1.6-2.6-1.6-4.3c0-0.8,0.2-2.4,1.2-3.8c-0.1-0.2-0.1-0.5-0.1-0.7
		v-3.1c0-1,0.6-1.9,1.5-2.3c0.8-0.3,1.8-0.6,2.9-0.8c1.1-0.2,2-0.3,2.9-0.3c2.6,0,4.6,0.7,6,1.9c1.4,1.3,2.1,3.3,2.1,6V25
		c0,1.4-1.1,2.5-2.5,2.5h-4.4c-0.3,0-0.7-0.1-1-0.2C179.4,27.6,178.5,27.8,177.6,27.8z"/>
	<path class="st0" d="M177.6,27.4c-1.7,0-3.1-0.6-4.1-1.6c-1-1.1-1.5-2.4-1.5-4.1c0-0.9,0.2-2.4,1.2-3.7c-0.1-0.2-0.1-0.5-0.1-0.8
		v-3.1c0-0.9,0.5-1.6,1.3-2c0.8-0.3,1.7-0.6,2.8-0.8c1.1-0.2,2-0.3,2.8-0.3c2.5,0,4.4,0.6,5.7,1.8c1.3,1.3,2,3.2,2,5.7V25
		c0,1.2-1,2.2-2.2,2.2h-4.4c-0.3,0-0.7-0.1-1-0.2C179.4,27.3,178.5,27.4,177.6,27.4z"/>
	<path class="st0" d="M191.4,27.8c-0.6,0-1.4-0.1-2.3-0.2c-0.9-0.1-1.7-0.3-2.3-0.5c-1.1-0.3-1.8-1.3-1.8-2.4v-3.4
		c0-0.6,0.2-1.2,0.6-1.6c-0.4-0.8-0.6-1.7-0.6-2.7c0-2,0.8-3.7,2.5-4.9c1.4-1,3.2-1.5,5.5-1.5c1.2,0,2.5,0.2,3.8,0.5
		c1.1,0.3,1.9,1.3,1.9,2.4v3.2c0,0.3-0.1,0.7-0.2,1c0.7,0.9,1,2.1,1,3.3c0,2.1-0.9,3.9-2.5,5.1C195.6,27.3,193.7,27.8,191.4,27.8z"
		/>
	<path class="st0" d="M191.4,27.4c-0.6,0-1.4-0.1-2.2-0.2c-0.9-0.1-1.6-0.3-2.2-0.5c-0.9-0.3-1.5-1.1-1.5-2.1v-3.4
		c0-0.6,0.2-1.2,0.7-1.6c-0.5-0.8-0.7-1.7-0.7-2.7c0-1.9,0.8-3.5,2.3-4.6c1.3-1,3.1-1.5,5.3-1.5c1.2,0,2.4,0.2,3.7,0.5
		c1,0.2,1.6,1.1,1.6,2.1v3.2c0,0.4-0.1,0.7-0.3,1.1c0.7,0.9,1.1,2,1.1,3.2c0,2-0.8,3.7-2.4,4.8C195.4,26.9,193.6,27.4,191.4,27.4z"
		/>
</g>
<g>
	<path class="st1" d="M10.9,26.4c-0.5,0-1-0.3-1.3-0.8l-1.3-2.6V25c0,0.8-0.6,1.4-1.4,1.4H2c-0.8,0-1.4-0.6-1.4-1.4V8.9
		c0-0.8,0.6-1.4,1.4-1.4h4.9c0.8,0,1.4,0.6,1.4,1.4v1.4l1-2.1c0.2-0.5,0.7-0.8,1.3-0.8h5.8c0.5,0,1,0.3,1.3,0.7c0.3,0.4,0.2,1,0,1.4
		l-4.1,6.9l4.6,7.7c0.3,0.4,0.3,1,0,1.4c-0.3,0.4-0.7,0.7-1.3,0.7H10.9z"/>
	<path class="st1" d="M17.4,26.4c-0.8,0-1.4-0.6-1.4-1.4V13.5c0-0.4,0.2-0.7,0.4-1c-0.4-0.6-0.7-1.3-0.7-2.1c0-1.1,0.4-2,1.2-2.7
		c0.7-0.6,1.7-1,2.9-1c1.1,0,2.1,0.3,2.9,0.9c0.8,0.7,1.3,1.6,1.3,2.7c0,0.8-0.2,1.5-0.7,2.1c0.2,0.3,0.4,0.6,0.4,1V25
		c0,0.8-0.6,1.4-1.4,1.4H17.4z"/>
	<path class="st1" d="M24.5,26.4c-0.8,0-1.4-0.6-1.4-1.4V13.5c0-0.8,0.6-1.4,1.4-1.4h4.8c0.3,0,0.7,0.1,0.9,0.3
		c0.7-0.4,1.4-0.5,2.3-0.5c0.5,0,0.9,0.1,1.3,0.3c0.5,0.2,0.8,0.7,0.8,1.3v4.2c0,0.5-0.2,0.9-0.7,1.2C33.7,19,33.4,19,33.1,19
		c-0.2,0-0.4,0-0.6-0.1c0,0-0.1-0.1-0.4-0.1c-0.3-0.1-0.4-0.1-0.5-0.1c-0.5,0-0.9,0-0.9,1.3v5c0,0.8-0.6,1.4-1.4,1.4H24.5z"/>
	<path class="st1" d="M38.2,26.7c-0.6,0-1.3-0.1-2.1-0.2c-0.8-0.1-1.5-0.3-2.1-0.4c-0.6-0.2-1-0.7-1-1.4v-3.4c0-0.5,0.2-0.9,0.7-1.2
		c0.1-0.1,0.2-0.1,0.3-0.2c-0.6-0.8-1-1.8-1-2.9c0-1.6,0.7-3,2-4c1.2-0.9,2.8-1.3,4.8-1.3c1.1,0,2.3,0.2,3.6,0.5
		c0.6,0.2,1.1,0.7,1.1,1.4v3.2c0,0.4-0.2,0.8-0.5,1.1c0.1,0,0.1,0.1,0.1,0.1c0.8,0.8,1.2,1.8,1.2,3.1c0,1.8-0.7,3.2-2.1,4.2
		C42,26.3,40.3,26.7,38.2,26.7z"/>
	<path class="st1" d="M50.9,26.7c-1.7,0-3.1-0.5-4.1-1.5c-1-1-1.6-2.4-1.6-4.2v-2.8h-0.4c-0.8,0-1.4-0.6-1.4-1.4v-3.3
		c0-0.8,0.6-1.4,1.4-1.4h0.4v-0.8c0-0.6,0.4-1.2,1.1-1.4l4.7-1.3c0.1,0,0.3-0.1,0.4-0.1c0.3,0,0.6,0.1,0.9,0.3
		c0.4,0.3,0.6,0.7,0.6,1.1v2.1h1c0.8,0,1.4,0.6,1.4,1.4v3.3c0,0.8-0.6,1.4-1.4,1.4h-1c0,0,0,2,0,2.1c0.1,0,0.3-0.1,0.4-0.1
		c0.2-0.1,0.3-0.1,0.5-0.1c0.3,0,0.6,0.1,0.8,0.3c0.4,0.3,0.6,0.7,0.6,1.2v3.3c0,0.5-0.3,1.1-0.8,1.3c-0.3,0.2-0.8,0.3-1.4,0.4
		C52.3,26.7,51.6,26.7,50.9,26.7z"/>
	<path class="st1" d="M61.1,26.7c-2.4,0-4.3-0.6-5.7-1.9c-1.4-1.3-2.1-3.1-2.1-5.3c0-1.5,0.3-2.8,0.9-3.9c0.6-1.2,1.5-2.1,2.8-2.8
		c1.2-0.7,2.5-1,3.9-1c1.4,0,2.7,0.3,3.7,0.9c1.1,0.6,1.9,1.5,2.5,2.5c0.5,1,0.8,2.3,0.8,3.6v1.8c0,0.7-0.5,1.3-1.2,1.4v2.6
		c0,0.6-0.4,1.1-0.9,1.3C64.5,26.5,62.9,26.7,61.1,26.7z"/>
	<path class="st1" d="M75.6,26.4c-0.6,0-1.1-0.4-1.3-0.9c-0.2,0.5-0.7,0.9-1.3,0.9h-4.8c-0.8,0-1.4-0.6-1.4-1.4V13.5
		c0-0.8,0.6-1.4,1.4-1.4h4.8c0.4,0,0.7,0.1,1,0.4c0.8-0.4,1.7-0.7,2.7-0.7c1.9,0,5.2,0.8,5.2,6.2v7c0,0.8-0.6,1.4-1.4,1.4H75.6z"/>
	<path class="st1" d="M93,26.4c-0.6,0-1.2-0.4-1.4-1L86.5,9.3c-0.1-0.4-0.1-0.9,0.2-1.3c0.3-0.4,0.7-0.6,1.2-0.6h5.2
		c0.7,0,1.2,0.5,1.4,1.1l1.4,5.8l1.4-5.8c0.2-0.6,0.7-1.1,1.4-1.1h5.1c0.5,0,0.9,0.2,1.2,0.6c0.3,0.4,0.3,0.9,0.2,1.3l-5.3,16.1
		c-0.2,0.6-0.7,1-1.4,1H93z"/>
	<path class="st1" d="M107.9,26.7c-1.5,0-2.7-0.5-3.6-1.4c-0.9-0.9-1.3-2.1-1.3-3.6c0-1,0.2-2.5,1.4-3.6c-0.2-0.2-0.3-0.5-0.3-0.9
		v-3.1c0-0.6,0.3-1.1,0.9-1.3c0.7-0.3,1.6-0.6,2.7-0.8c1-0.2,1.9-0.3,2.7-0.3c2.3,0,4.1,0.6,5.2,1.6c1.2,1.1,1.8,2.9,1.8,5.2V25
		c0,0.8-0.6,1.4-1.4,1.4h-4.4c-0.3,0-0.7-0.1-0.9-0.3C109.7,26.5,108.8,26.7,107.9,26.7z"/>
	<path class="st1" d="M125.4,26.4c-0.6,0-1.1-0.4-1.3-0.9c-0.2,0.5-0.7,0.9-1.3,0.9h-4.8c-0.8,0-1.4-0.6-1.4-1.4V13.5
		c0-0.8,0.6-1.4,1.4-1.4h4.8c0.4,0,0.7,0.1,1,0.4c0.8-0.4,1.7-0.7,2.7-0.7c1.9,0,5.2,0.8,5.2,6.2v7c0,0.8-0.6,1.4-1.4,1.4H125.4z"/>
	<path class="st1" d="M136.7,26.7c-1.3,0-2.4-0.3-3.4-1c-1-0.6-1.7-1.5-2.2-2.7c-0.4-1-0.7-2.3-0.7-3.6c0-1.4,0.3-2.7,0.8-3.9
		c0.6-1.2,1.4-2.1,2.4-2.8c1-0.7,2.2-1,3.5-1c0.5,0,1,0.1,1.5,0.2V8c0-0.8,0.6-1.4,1.4-1.4h4.8c0.8,0,1.4,0.6,1.4,1.4v17
		c0,0.8-0.6,1.4-1.4,1.4H140c-0.3,0-0.6-0.1-0.9-0.3c0,0,0,0,0,0C138.3,26.5,137.5,26.7,136.7,26.7z M138.3,20.3L138.3,20.3z"/>
	<path class="st1" d="M153,26.7c-2.4,0-4.3-0.6-5.7-1.9c-1.4-1.3-2.1-3.1-2.1-5.3c0-1.5,0.3-2.8,0.9-3.9c0.6-1.2,1.5-2.1,2.8-2.8
		c1.2-0.7,2.5-1,3.9-1c1.4,0,2.7,0.3,3.7,0.9c1.1,0.6,1.9,1.5,2.5,2.5c0.5,1,0.8,2.3,0.8,3.6v1.8c0,0.7-0.5,1.3-1.2,1.4v2.6
		c0,0.6-0.4,1.1-0.9,1.3C156.4,26.5,154.8,26.7,153,26.7z"/>
	<path class="st1" d="M160,31.7c-0.8,0-1.4-0.6-1.4-1.4V13.5c0-0.8,0.6-1.4,1.4-1.4h4.8c0.3,0,0.7,0.1,0.9,0.3
		c0.8-0.4,1.7-0.6,2.7-0.6c1.9,0,3.5,0.7,4.5,2c1,1.2,1.5,3,1.5,5.1c0,1.5-0.3,2.8-0.8,3.9c-0.5,1.2-1.3,2.2-2.3,2.9
		c-1,0.7-2.2,1-3.4,1c-0.6,0-1.2-0.1-1.7-0.2v3.8c0,0.8-0.6,1.4-1.4,1.4H160z"/>
	<path class="st1" d="M177.6,26.7c-1.5,0-2.7-0.5-3.6-1.4c-0.9-0.9-1.3-2.1-1.3-3.6c0-1,0.2-2.5,1.4-3.6c-0.2-0.2-0.3-0.5-0.3-0.9
		v-3.1c0-0.6,0.3-1.1,0.9-1.3c0.7-0.3,1.6-0.6,2.7-0.8c1-0.2,1.9-0.3,2.7-0.3c2.3,0,4.1,0.6,5.2,1.6c1.2,1.1,1.8,2.9,1.8,5.2V25
		c0,0.8-0.6,1.4-1.4,1.4h-4.4c-0.3,0-0.7-0.1-0.9-0.3C179.4,26.5,178.6,26.7,177.6,26.7z"/>
	<path class="st1" d="M191.4,26.7c-0.6,0-1.3-0.1-2.1-0.2c-0.8-0.1-1.5-0.3-2.1-0.4c-0.6-0.2-1-0.7-1-1.4v-3.4
		c0-0.5,0.2-0.9,0.7-1.2c0.1-0.1,0.2-0.1,0.3-0.2c-0.6-0.8-1-1.8-1-2.9c0-1.6,0.7-3,2-4c1.2-0.9,2.8-1.3,4.8-1.3
		c1.1,0,2.3,0.2,3.6,0.5c0.6,0.2,1.1,0.7,1.1,1.4v3.2c0,0.4-0.2,0.8-0.5,1.1c0.1,0,0.1,0.1,0.1,0.1c0.8,0.8,1.2,1.8,1.2,3.1
		c0,1.8-0.7,3.2-2.1,4.2C195.1,26.3,193.4,26.7,191.4,26.7z"/>
</g>
<g>
	<path class="st2" d="M10.9,25.7c-0.3,0-0.5-0.1-0.6-0.4l-2.7-5.1V25c0,0.4-0.3,0.7-0.7,0.7H2c-0.4,0-0.7-0.3-0.7-0.7V8.9
		c0-0.4,0.3-0.7,0.7-0.7h4.9c0.4,0,0.7,0.3,0.7,0.7v4.5l2.4-4.9c0.1-0.2,0.4-0.4,0.6-0.4h5.8c0.3,0,0.5,0.1,0.6,0.4s0.1,0.5,0,0.7
		l-4.4,7.3l4.8,8.1c0.1,0.2,0.1,0.5,0,0.7c-0.1,0.2-0.4,0.4-0.6,0.4H10.9z"/>
	<path class="st2" d="M17.4,25.7c-0.4,0-0.7-0.3-0.7-0.7V13.5c0-0.4,0.3-0.7,0.7-0.7h0.3c-0.1-0.1-0.2-0.1-0.3-0.2
		c-0.6-0.6-1-1.3-1-2.2c0-0.9,0.3-1.6,1-2.2c0.6-0.5,1.4-0.8,2.4-0.8c1,0,1.8,0.3,2.4,0.8c0.7,0.5,1,1.3,1,2.2c0,0.9-0.3,1.6-1,2.2
		c-0.1,0.1-0.2,0.1-0.2,0.2h0.2c0.4,0,0.7,0.3,0.7,0.7V25c0,0.4-0.3,0.7-0.7,0.7H17.4z"/>
	<path class="st2" d="M24.5,25.7c-0.4,0-0.7-0.3-0.7-0.7V13.5c0-0.4,0.3-0.7,0.7-0.7h4.8c0.4,0,0.7,0.3,0.7,0.6
		c0.1,0,0.1-0.1,0.2-0.1c0.7-0.5,1.4-0.7,2.3-0.7c0.4,0,0.7,0.1,1,0.2c0.3,0.1,0.4,0.4,0.4,0.7v4.2c0,0.2-0.1,0.5-0.3,0.6
		c-0.1,0.1-0.3,0.1-0.4,0.1c-0.1,0-0.2,0-0.3-0.1c-0.1,0-0.3-0.1-0.6-0.2C31.9,18,31.7,18,31.6,18c-0.9,0-1.6,0.2-1.6,2v5
		c0,0.4-0.3,0.7-0.7,0.7H24.5z"/>
	<path class="st2" d="M38.2,26c-0.5,0-1.2-0.1-2-0.2c-0.8-0.1-1.5-0.2-2-0.4c-0.3-0.1-0.5-0.4-0.5-0.7v-3.4c0-0.2,0.1-0.5,0.3-0.6
		c0.1-0.1,0.3-0.1,0.4-0.1c0.1,0,0.2,0,0.3,0.1c1.3,0.6,2.4,0.9,3.3,0.9c0.2,0,0.3,0,0.4,0c-0.2-0.1-0.6-0.2-1.3-0.5
		c-1.1-0.4-2-0.9-2.5-1.5c-0.6-0.7-0.9-1.5-0.9-2.6c0-1.4,0.6-2.6,1.7-3.4c1.1-0.8,2.6-1.2,4.4-1.2c1.1,0,2.2,0.2,3.4,0.5
		c0.3,0.1,0.5,0.4,0.5,0.7v3.2c0,0.2-0.1,0.5-0.3,0.6c-0.1,0.1-0.3,0.1-0.4,0.1c-0.1,0-0.2,0-0.3-0.1c-0.4-0.2-0.9-0.3-1.4-0.5
		c-0.5-0.1-0.8-0.2-1.1-0.2c0.1,0.1,0.3,0.1,0.6,0.2c1.3,0.4,2.2,0.9,2.8,1.5c0.6,0.7,1,1.5,1,2.6c0,1.5-0.6,2.8-1.8,3.6
		C41.7,25.6,40.1,26,38.2,26z"/>
	<path class="st2" d="M50.9,26c-1.5,0-2.7-0.4-3.6-1.3c-0.9-0.9-1.3-2.1-1.3-3.6v-3.5h-1.1c-0.4,0-0.7-0.3-0.7-0.7v-3.3
		c0-0.4,0.3-0.7,0.7-0.7h1.1v-1.5c0-0.3,0.2-0.6,0.5-0.7l4.7-1.3c0.1,0,0.1,0,0.2,0c0.2,0,0.3,0.1,0.4,0.1C51.9,9.5,52,9.7,52,9.9
		v2.8h1.7c0.4,0,0.7,0.3,0.7,0.7v3.3c0,0.4-0.3,0.7-0.7,0.7H52v2.7c0,0.8,0.2,0.8,0.5,0.8c0.3,0,0.6-0.1,0.9-0.2c0.1,0,0.2,0,0.3,0
		c0.1,0,0.3,0,0.4,0.1c0.2,0.1,0.3,0.4,0.3,0.6v3.3c0,0.3-0.2,0.5-0.4,0.6c-0.3,0.1-0.7,0.2-1.2,0.4C52.2,25.9,51.6,26,50.9,26z"/>
	<path class="st2" d="M61.1,26c-2.2,0-3.9-0.6-5.2-1.7c-1.3-1.2-1.9-2.8-1.9-4.8c0-1.3,0.3-2.6,0.8-3.6c0.6-1.1,1.4-1.9,2.5-2.5
		c1.1-0.6,2.3-0.9,3.5-0.9c1.3,0,2.5,0.3,3.4,0.8c1,0.5,1.7,1.3,2.2,2.3c0.5,0.9,0.7,2,0.7,3.3v1.8c0,0.4-0.3,0.7-0.7,0.7H66
		c0,0.1,0,0.1,0,0.2v3c0,0.3-0.2,0.6-0.5,0.7C64.3,25.7,62.8,26,61.1,26z M61,21.3c0.3,0.1,0.7,0.1,1.1,0.1c0.5,0,1,0,1.5-0.1H61z
		 M61.4,17.4c-0.1-0.5-0.4-0.5-0.6-0.5c-0.1,0-0.3,0-0.4,0.3c-0.1,0.1-0.1,0.2-0.2,0.3H61.4z"/>
	<path class="st2" d="M75.6,25.7c-0.4,0-0.7-0.3-0.7-0.7v-6.3c0-0.8-0.1-1-0.2-1.1c0,0-0.1-0.2-0.4-0.2c-0.2,0-0.3,0.1-0.4,0.2
		c-0.1,0.2-0.2,0.5-0.2,0.8V25c0,0.4-0.3,0.7-0.7,0.7h-4.8c-0.4,0-0.7-0.3-0.7-0.7V13.5c0-0.4,0.3-0.7,0.7-0.7h4.8
		c0.4,0,0.7,0.3,0.7,0.7c0.2-0.1,0.3-0.2,0.5-0.3c0.8-0.4,1.6-0.6,2.5-0.6c2,0,4.5,1,4.5,5.5v7c0,0.4-0.3,0.7-0.7,0.7H75.6z"/>
	<path class="st2" d="M93,25.7c-0.3,0-0.6-0.2-0.7-0.5L87.2,9.1c-0.1-0.2,0-0.5,0.1-0.6c0.1-0.2,0.4-0.3,0.6-0.3h5.2
		c0.3,0,0.6,0.2,0.7,0.5l2.1,8.6L98,8.7c0.1-0.3,0.4-0.6,0.7-0.6h5.1c0.2,0,0.4,0.1,0.6,0.3c0.1,0.2,0.2,0.4,0.1,0.6l-5.3,16.1
		c-0.1,0.3-0.4,0.5-0.7,0.5H93z"/>
	<path class="st2" d="M107.9,26c-1.3,0-2.3-0.4-3.1-1.2c-0.7-0.8-1.1-1.8-1.1-3.1c0-1.8,0.8-4.1,4.8-4.6l1.5-0.2c-0.1,0-0.2,0-0.4,0
		c-1.2,0-2.4,0.3-3.7,1c-0.1,0.1-0.2,0.1-0.3,0.1c-0.1,0-0.3,0-0.4-0.1c-0.2-0.1-0.3-0.4-0.3-0.6v-3.1c0-0.3,0.2-0.5,0.4-0.7
		c0.7-0.3,1.5-0.5,2.5-0.7c1-0.2,1.8-0.3,2.5-0.3c2.1,0,3.7,0.5,4.7,1.5c1,1,1.5,2.6,1.5,4.7V25c0,0.4-0.3,0.7-0.7,0.7h-4.4
		c-0.4,0-0.7-0.3-0.7-0.6C109.9,25.7,109,26,107.9,26z M109.9,20.7c-0.6,0.1-0.6,0.3-0.6,0.4c0,0.2,0,0.2,0.1,0.3
		c0.1,0.1,0.2,0.1,0.3,0.1c0.3,0,0.5-0.1,0.7-0.3c0.1-0.2,0.2-0.4,0.3-0.6L109.9,20.7z"/>
	<path class="st2" d="M125.4,25.7c-0.4,0-0.7-0.3-0.7-0.7v-6.3c0-0.8-0.1-1-0.2-1.1c0,0-0.1-0.2-0.4-0.2c-0.2,0-0.3,0.1-0.4,0.2
		c-0.1,0.2-0.2,0.5-0.2,0.8V25c0,0.4-0.3,0.7-0.7,0.7h-4.8c-0.4,0-0.7-0.3-0.7-0.7V13.5c0-0.4,0.3-0.7,0.7-0.7h4.8
		c0.4,0,0.7,0.3,0.7,0.7c0.2-0.1,0.3-0.2,0.5-0.3c0.8-0.4,1.6-0.6,2.5-0.6c2,0,4.5,1,4.5,5.5v7c0,0.4-0.3,0.7-0.7,0.7H125.4z"/>
	<path class="st2" d="M136.7,26c-1.1,0-2.1-0.3-3-0.8c-0.9-0.6-1.5-1.4-2-2.4c-0.4-1-0.6-2.1-0.6-3.4c0-1.3,0.2-2.5,0.7-3.6
		c0.5-1.1,1.2-1.9,2.1-2.5c0.9-0.6,2-0.9,3.1-0.9c0.5,0,1.1,0.1,1.5,0.2c0.3,0.1,0.5,0.2,0.7,0.3V8c0-0.4,0.3-0.7,0.7-0.7h4.8
		c0.4,0,0.7,0.3,0.7,0.7v17c0,0.4-0.3,0.7-0.7,0.7H140c-0.3,0-0.6-0.2-0.7-0.5c-0.2,0.1-0.4,0.2-0.5,0.3
		C138.1,25.8,137.4,26,136.7,26z M138.4,17.4c-0.2,0-0.4,0-0.7,0.4c-0.2,0.4-0.4,0.9-0.4,1.5c0,1.7,0.7,1.7,1,1.7
		c0.3,0,0.5-0.1,0.7-0.4c0.2-0.3,0.3-0.8,0.3-1.5v-0.3c0-0.5-0.1-0.9-0.3-1.2C138.9,17.5,138.7,17.4,138.4,17.4z"/>
	<path class="st2" d="M153,26c-2.2,0-3.9-0.6-5.2-1.7c-1.3-1.2-1.9-2.8-1.9-4.8c0-1.3,0.3-2.6,0.8-3.6c0.6-1.1,1.4-1.9,2.5-2.5
		c1.1-0.6,2.3-0.9,3.5-0.9c1.3,0,2.5,0.3,3.4,0.8c1,0.5,1.7,1.3,2.2,2.3c0.5,0.9,0.7,2,0.7,3.3v1.8c0,0.4-0.3,0.7-0.7,0.7h-0.5
		c0,0.1,0,0.1,0,0.2v3c0,0.3-0.2,0.6-0.5,0.7C156.2,25.7,154.7,26,153,26z M152.9,21.3c0.3,0.1,0.7,0.1,1.1,0.1c0.5,0,1,0,1.5-0.1
		H152.9z M153.3,17.4c-0.1-0.5-0.4-0.5-0.6-0.5c-0.1,0-0.3,0-0.4,0.3c-0.1,0.1-0.1,0.2-0.2,0.3H153.3z"/>
	<path class="st2" d="M160,31c-0.4,0-0.7-0.3-0.7-0.7V13.5c0-0.4,0.3-0.7,0.7-0.7h4.8c0.4,0,0.6,0.3,0.7,0.6
		c0.2-0.1,0.3-0.2,0.5-0.3c0.7-0.4,1.5-0.6,2.4-0.6c1.7,0,3,0.6,4,1.8c0.9,1.1,1.3,2.7,1.3,4.7c0,1.4-0.2,2.6-0.7,3.6
		c-0.5,1.1-1.2,1.9-2.1,2.5c-0.9,0.6-1.9,0.9-3,0.9c-0.9,0-1.7-0.2-2.4-0.6v4.9c0,0.4-0.3,0.7-0.7,0.7H160z M166.4,17.4
		c-0.3,0-0.5,0.1-0.7,0.4c-0.2,0.3-0.3,0.8-0.3,1.4v0.2c0,0.6,0.1,1,0.3,1.4c0.1,0.2,0.3,0.3,0.6,0.3c0.3,0,0.6-0.1,0.7-0.4
		c0.2-0.4,0.4-0.9,0.4-1.6c0-0.6-0.1-1-0.3-1.3C167,17.6,166.8,17.4,166.4,17.4z"/>
	<path class="st2" d="M177.6,26c-1.3,0-2.3-0.4-3.1-1.2c-0.7-0.8-1.1-1.8-1.1-3.1c0-1.8,0.8-4.1,4.8-4.6l1.5-0.2c-0.1,0-0.2,0-0.4,0
		c-1.2,0-2.4,0.3-3.7,1c-0.1,0.1-0.2,0.1-0.3,0.1c-0.1,0-0.3,0-0.4-0.1c-0.2-0.1-0.3-0.4-0.3-0.6v-3.1c0-0.3,0.2-0.5,0.4-0.7
		c0.7-0.3,1.5-0.5,2.5-0.7c1-0.2,1.8-0.3,2.5-0.3c2.1,0,3.7,0.5,4.7,1.5c1,1,1.5,2.6,1.5,4.7V25c0,0.4-0.3,0.7-0.7,0.7h-4.4
		c-0.4,0-0.7-0.3-0.7-0.6C179.6,25.7,178.7,26,177.6,26z M179.6,20.7c-0.6,0.1-0.6,0.3-0.6,0.4c0,0.2,0,0.2,0.1,0.3
		c0.1,0.1,0.2,0.1,0.3,0.1c0.3,0,0.5-0.1,0.7-0.3c0.1-0.2,0.2-0.4,0.3-0.6L179.6,20.7z"/>
	<path class="st2" d="M191.4,26c-0.5,0-1.2-0.1-2-0.2c-0.8-0.1-1.5-0.2-2-0.4c-0.3-0.1-0.5-0.4-0.5-0.7v-3.4c0-0.2,0.1-0.5,0.3-0.6
		c0.1-0.1,0.3-0.1,0.4-0.1c0.1,0,0.2,0,0.3,0.1c1.3,0.6,2.4,0.9,3.3,0.9c0.2,0,0.3,0,0.4,0c-0.2-0.1-0.6-0.2-1.3-0.5
		c-1.1-0.4-2-0.9-2.5-1.5c-0.6-0.7-0.9-1.5-0.9-2.6c0-1.4,0.6-2.6,1.7-3.4c1.1-0.8,2.6-1.2,4.4-1.2c1.1,0,2.2,0.2,3.4,0.5
		c0.3,0.1,0.5,0.4,0.5,0.7v3.2c0,0.2-0.1,0.5-0.3,0.6c-0.1,0.1-0.3,0.1-0.4,0.1c-0.1,0-0.2,0-0.3-0.1c-0.4-0.2-0.9-0.3-1.4-0.5
		c-0.5-0.1-0.8-0.2-1.1-0.2c0.1,0.1,0.3,0.1,0.6,0.2c1.3,0.4,2.2,0.9,2.8,1.5c0.6,0.7,1,1.5,1,2.6c0,1.5-0.6,2.8-1.8,3.6
		C194.8,25.6,193.3,26,191.4,26z"/>
</g>
<g>
	<path class="st3" d="M10.9,25l-3.6-6.8c-0.2-0.5-0.4-0.9-0.4-1.1H6.8V25H2V8.9h4.9v7.7h0.1c0.1-0.4,0.3-0.8,0.5-1.1l3.2-6.5h5.8
		l-4.6,7.7l5,8.4H10.9z"/>
	<path class="st3" d="M22.5,10.4c0,0.7-0.2,1.2-0.7,1.6s-1.1,0.6-1.9,0.6c-0.8,0-1.4-0.2-1.9-0.7c-0.5-0.4-0.7-1-0.7-1.6
		c0-0.7,0.2-1.2,0.7-1.6c0.5-0.4,1.1-0.6,1.9-0.6c0.8,0,1.4,0.2,1.9,0.6S22.5,9.7,22.5,10.4z M17.4,25V13.5h4.8V25H17.4z"/>
	<path class="st3" d="M33.1,17.6c-0.2-0.1-0.4-0.2-0.7-0.2c-0.3-0.1-0.6-0.1-0.8-0.1c-1.6,0-2.4,0.9-2.4,2.7v5h-4.8V13.5h4.8v2h0
		c0.3-0.7,0.7-1.3,1.2-1.7s1.2-0.6,1.9-0.6c0.3,0,0.5,0,0.7,0.1V17.6z"/>
	<path class="st3" d="M43.9,21.2c0,1.3-0.5,2.3-1.5,3s-2.4,1.1-4.1,1.1c-0.5,0-1.2-0.1-1.9-0.2c-0.8-0.1-1.4-0.2-1.9-0.4v-3.4
		c1.4,0.6,2.6,0.9,3.5,0.9c0.9,0,1.4-0.2,1.4-0.7c0-0.2-0.1-0.4-0.3-0.5c-0.2-0.1-0.8-0.4-1.7-0.7c-1-0.3-1.8-0.7-2.2-1.3
		c-0.5-0.5-0.7-1.2-0.7-2.1c0-1.2,0.5-2.1,1.4-2.8c0.9-0.7,2.3-1,4-1c1,0,2.1,0.1,3.2,0.4v3.2c-0.5-0.2-1-0.4-1.5-0.5
		s-1-0.2-1.4-0.2c-0.3,0-0.6,0.1-0.8,0.2c-0.2,0.1-0.3,0.3-0.3,0.4c0,0.2,0.1,0.4,0.3,0.5s0.6,0.3,1.2,0.5c1.2,0.3,2,0.8,2.5,1.3
		C43.6,19.6,43.9,20.3,43.9,21.2z"/>
	<path class="st3" d="M53.7,24.8c-0.2,0.1-0.6,0.2-1.1,0.3s-1.1,0.1-1.8,0.1c-1.3,0-2.4-0.4-3.1-1.1c-0.8-0.7-1.1-1.8-1.1-3.1v-4.2
		h-1.8v-3.3h1.8v-2.3l4.7-1.3v3.6h2.4v3.3h-2.4v3.4c0,1,0.4,1.5,1.2,1.5c0.4,0,0.8-0.1,1.2-0.2V24.8z"/>
	<path class="st3" d="M59.3,20.6c0.1,0.5,0.4,0.9,0.9,1.2c0.5,0.3,1.1,0.4,1.9,0.4c1.1,0,2.2-0.2,3.2-0.6v3
		c-1.2,0.5-2.6,0.7-4.2,0.7c-2,0-3.6-0.5-4.7-1.5c-1.1-1-1.7-2.4-1.7-4.2c0-1.2,0.2-2.3,0.7-3.3s1.2-1.7,2.2-2.2s2-0.8,3.2-0.8
		c1.2,0,2.2,0.2,3.1,0.7c0.8,0.5,1.5,1.1,1.9,2c0.4,0.8,0.7,1.8,0.7,2.9v1.8H59.3z M62.2,18.1c0-1.3-0.5-2-1.4-2
		c-0.4,0-0.7,0.2-1,0.5s-0.4,0.8-0.5,1.4H62.2z"/>
	<path class="st3" d="M75.6,25v-6.3c0-0.7-0.1-1.2-0.3-1.5c-0.2-0.3-0.6-0.5-1-0.5c-0.4,0-0.7,0.2-1,0.5c-0.2,0.3-0.3,0.7-0.3,1.2
		V25h-4.8V13.5h4.8v1.8h0c0.4-0.7,0.9-1.2,1.5-1.5c0.6-0.4,1.3-0.5,2.1-0.5c2.5,0,3.8,1.6,3.8,4.8v7H75.6z"/>
	<path class="st3" d="M98.5,25H93L87.8,8.9h5.2l2.5,9.9c0.2,0.8,0.3,1.4,0.3,1.8H96c0-0.5,0.2-1.1,0.3-1.9l2.4-9.8h5.1L98.5,25z"/>
	<path class="st3" d="M111.4,25v-1.8h0c-0.8,1.4-1.9,2-3.5,2c-1.1,0-1.9-0.3-2.5-1c-0.6-0.6-0.9-1.5-0.9-2.6c0-2.3,1.4-3.6,4.2-3.9
		l2.9-0.4c0-0.4-0.2-0.7-0.5-0.9s-0.8-0.4-1.4-0.4c-1.3,0-2.6,0.4-4.1,1.1v-3.1c0.6-0.3,1.4-0.5,2.3-0.7c0.9-0.2,1.7-0.3,2.4-0.3
		c2,0,3.4,0.4,4.2,1.3c0.9,0.8,1.3,2.2,1.3,4.2V25H111.4z M108.6,21.1c0,0.3,0.1,0.6,0.3,0.8c0.2,0.2,0.5,0.3,0.8,0.3
		c0.5,0,0.9-0.2,1.2-0.6s0.5-0.9,0.5-1.4v-0.4l-1.6,0.2C109,20.1,108.6,20.5,108.6,21.1z"/>
	<path class="st3" d="M125.4,25v-6.3c0-0.7-0.1-1.2-0.3-1.5c-0.2-0.3-0.6-0.5-1-0.5c-0.4,0-0.7,0.2-1,0.5c-0.2,0.3-0.3,0.7-0.3,1.2
		V25h-4.8V13.5h4.8v1.8h0c0.4-0.7,0.9-1.2,1.5-1.5c0.6-0.4,1.3-0.5,2.1-0.5c2.5,0,3.8,1.6,3.8,4.8v7H125.4z"/>
	<path class="st3" d="M140,25v-1.3h0c-0.4,0.5-0.9,0.9-1.5,1.2c-0.6,0.3-1.2,0.4-1.8,0.4c-1,0-1.8-0.2-2.6-0.7
		c-0.7-0.5-1.3-1.2-1.7-2c-0.4-0.9-0.6-1.9-0.6-3.1c0-1.2,0.2-2.3,0.7-3.2c0.4-0.9,1.1-1.7,1.9-2.2c0.8-0.5,1.7-0.8,2.7-0.8
		c0.5,0,0.9,0.1,1.3,0.2c0.4,0.1,0.7,0.3,1,0.5s0.5,0.5,0.6,0.7h0V8h4.8v17H140z M140.1,18.9c0-0.7-0.2-1.2-0.5-1.6
		c-0.3-0.4-0.7-0.6-1.2-0.6s-0.9,0.2-1.3,0.7c-0.3,0.5-0.5,1.1-0.5,1.9c0,1.6,0.6,2.4,1.7,2.4c0.5,0,1-0.2,1.3-0.7
		c0.3-0.4,0.5-1.1,0.5-1.9V18.9z"/>
	<path class="st3" d="M151.2,20.6c0.1,0.5,0.4,0.9,0.9,1.2c0.5,0.3,1.1,0.4,1.9,0.4c1.1,0,2.2-0.2,3.2-0.6v3
		c-1.2,0.5-2.6,0.7-4.2,0.7c-2,0-3.6-0.5-4.7-1.5c-1.1-1-1.7-2.4-1.7-4.2c0-1.2,0.2-2.3,0.7-3.3s1.2-1.7,2.2-2.2s2-0.8,3.2-0.8
		c1.2,0,2.2,0.2,3.1,0.7c0.8,0.5,1.5,1.1,1.9,2c0.4,0.8,0.7,1.8,0.7,2.9v1.8H151.2z M154.1,18.1c0-1.3-0.5-2-1.4-2
		c-0.4,0-0.7,0.2-1,0.5s-0.4,0.8-0.5,1.4H154.1z"/>
	<path class="st3" d="M173,18.9c0,1.3-0.2,2.4-0.6,3.3s-1,1.7-1.8,2.2c-0.8,0.5-1.7,0.8-2.6,0.8c-1.3,0-2.4-0.5-3.1-1.5h0v6.5H160
		V13.5h4.8v1.6h0c0.4-0.6,0.9-1,1.5-1.4c0.6-0.3,1.3-0.5,2.1-0.5c1.5,0,2.6,0.5,3.4,1.5S173,17.1,173,18.9z M168.1,19
		c0-0.7-0.1-1.3-0.4-1.7c-0.3-0.4-0.7-0.6-1.3-0.6c-0.5,0-0.9,0.2-1.2,0.7c-0.3,0.4-0.5,1-0.5,1.8v0.2c0,0.7,0.1,1.3,0.4,1.7
		c0.3,0.4,0.7,0.7,1.2,0.7c0.6,0,1-0.2,1.3-0.7S168.1,19.9,168.1,19z"/>
	<path class="st3" d="M181.1,25v-1.8h0c-0.8,1.4-1.9,2-3.5,2c-1.1,0-1.9-0.3-2.5-1c-0.6-0.6-0.9-1.5-0.9-2.6c0-2.3,1.4-3.6,4.2-3.9
		l2.9-0.4c0-0.4-0.2-0.7-0.5-0.9s-0.8-0.4-1.4-0.4c-1.3,0-2.6,0.4-4.1,1.1v-3.1c0.6-0.3,1.4-0.5,2.3-0.7c0.9-0.2,1.7-0.3,2.4-0.3
		c2,0,3.4,0.4,4.2,1.3c0.9,0.8,1.3,2.2,1.3,4.2V25H181.1z M178.3,21.1c0,0.3,0.1,0.6,0.3,0.8c0.2,0.2,0.5,0.3,0.8,0.3
		c0.5,0,0.9-0.2,1.2-0.6s0.5-0.9,0.5-1.4v-0.4l-1.6,0.2C178.7,20.1,178.3,20.5,178.3,21.1z"/>
	<path class="st3" d="M197,21.2c0,1.3-0.5,2.3-1.5,3s-2.4,1.1-4.1,1.1c-0.5,0-1.2-0.1-1.9-0.2c-0.8-0.1-1.4-0.2-1.9-0.4v-3.4
		c1.4,0.6,2.6,0.9,3.5,0.9c0.9,0,1.4-0.2,1.4-0.7c0-0.2-0.1-0.4-0.3-0.5c-0.2-0.1-0.8-0.4-1.7-0.7c-1-0.3-1.8-0.7-2.2-1.3
		c-0.5-0.5-0.7-1.2-0.7-2.1c0-1.2,0.5-2.1,1.4-2.8c0.9-0.7,2.3-1,4-1c1,0,2.1,0.1,3.2,0.4v3.2c-0.5-0.2-1-0.4-1.5-0.5
		s-1-0.2-1.4-0.2c-0.3,0-0.6,0.1-0.8,0.2c-0.2,0.1-0.3,0.3-0.3,0.4c0,0.2,0.1,0.4,0.3,0.5s0.6,0.3,1.2,0.5c1.2,0.3,2,0.8,2.5,1.3
		C196.7,19.6,197,20.3,197,21.2z"/>
</g>
</svg>
